<svg aria-hidden="true" style="overflow: hidden;" version="1.1" xmlns="http://www.w3.org/2000/svg" xmlns:xlink="http://www.w3.org/1999/xlink">

<defs>
<symbol id="angular" viewBox="0 0 450 450">
<path d="M171.497 237.154H248.503L210 145.145L171.497 237.154ZM210 0L0 74.7321L32.1367 351.663L210 450L387.863 351.663L420 74.7321L210 0ZM341.578 343.326H292.464L265.987 277.634H154.216L127.738 343.326H78.5226L210 49.721L341.578 343.326Z" fill="#FF0000"/>
</symbol>
</defs>

<defs>
<symbol id='angular-ui-libraries' viewBox="0 0 450 450">
<path d="M171.497 237.154H248.503L210 145.145L171.497 237.154ZM210 0L0 74.7321L32.1367 351.663L210 450L387.863 351.663L420 74.7321L210 0ZM341.578 343.326H292.464L265.987 277.634H154.216L127.738 343.326H78.5226L210 49.721L341.578 343.326Z" fill="#FF0000"/>
</symbol>
</defs>

<defs>
<symbol id="icons" viewBox="0 0 450 450">
<path d="M435.938 21.25C435.938 16.781 431.895 13.4269 427.5 14.303L315 36.9583C311.748 37.622 309.375 40.5247 309.375 43.9053V180.173C309.375 204.421 284.15 223.448 253.125 223.448C222.1 223.448 196.875 204.421 196.875 180.969C196.875 157.518 222.1 138.491 253.125 138.491C269.912 138.491 285.029 144.066 295.312 152.916V43.9053C295.312 33.7812 302.432 25.0643 312.275 23.0731L424.775 0.419641C437.783 -2.20872 450 7.84276 450 21.25V151.854C450 176.102 424.775 195.129 393.75 195.129C362.725 195.129 337.5 176.102 337.5 152.65C337.5 129.199 362.725 110.172 393.75 110.172C410.537 110.172 425.654 115.747 435.938 124.597V21.25ZM253.125 152.65C240.381 152.65 229.307 156.544 221.748 162.296C214.277 167.96 210.938 174.686 210.938 180.969C210.938 187.253 214.277 193.978 221.748 199.642C229.307 205.394 240.381 209.288 253.125 209.288C265.869 209.288 276.943 205.394 284.502 199.642C291.973 193.978 295.312 187.253 295.312 180.173C295.312 174.686 291.973 167.96 284.502 162.296C276.943 156.544 265.869 152.65 253.125 152.65ZM393.75 124.331C381.006 124.331 369.932 128.225 362.373 133.977C354.902 139.641 351.562 146.367 351.562 152.65C351.562 158.934 354.902 165.659 362.373 171.323C369.932 177.075 381.006 180.969 393.75 180.969C406.494 180.969 417.568 177.075 425.127 171.323C432.598 165.659 435.938 158.934 435.938 151.854C435.938 146.367 432.598 139.641 425.127 133.977C417.568 128.225 406.494 124.331 393.75 124.331ZM426.621 238.315L396.738 322.564H433.564C442.617 322.564 450 329.998 450 339.113C450 344.246 447.627 348.317 443.672 352.211L321.768 447.699C319.834 449.204 317.461 450 315 450C307.441 450 302.08 442.389 304.629 435.133L334.512 350.883H297.246C288.369 350.883 281.25 343.715 281.25 334.777C281.25 329.91 283.535 324.423 286.611 322.122L409.395 225.837C411.328 224.244 413.789 222.651 416.25 222.651C423.809 222.651 429.17 231.059 426.621 238.315ZM295.312 334.777C295.312 335.839 295.4 336.724 297.246 336.724H344.531C346.816 336.724 348.926 337.874 350.244 339.733C351.562 341.591 351.914 343.981 351.123 346.193L321.416 430L434.971 341.06C435.586 340.618 435.938 339.91 435.938 339.113C435.938 337.786 434.883 336.724 433.564 336.724H386.719C384.434 336.724 381.533 335.573 381.006 333.715C378.896 331.857 379.336 329.467 380.127 327.255L409.834 243.537L296.016 333.273C295.576 333.627 295.312 334.246 295.312 334.777ZM175.781 357.963C175.781 385.309 153.721 407.521 126.562 407.521C99.4043 407.521 77.3438 385.309 77.3438 357.963C77.3438 330.618 99.4043 308.405 126.562 308.405C153.721 308.405 175.781 330.618 175.781 357.963ZM126.562 393.362C145.986 393.362 161.719 377.521 161.719 357.963C161.719 338.405 145.986 322.564 126.562 322.564C107.139 322.564 91.4062 338.405 91.4062 357.963C91.4062 377.521 107.139 393.362 126.562 393.362ZM183.516 253.271L189.844 265.926H210.938C234.229 265.926 253.125 284.953 253.125 308.405V407.521C253.125 430.973 234.229 450 210.938 450H42.1875C18.8877 450 0 430.973 0 407.521V308.405C0 284.953 18.8877 265.926 42.1875 265.926H62.4902L69.5742 253.271C74.3379 243.625 84.0762 236.811 94.7461 236.811H158.379C169.014 236.811 178.77 243.625 183.516 253.271ZM42.1875 280.086C26.6572 280.086 14.0625 292.741 14.0625 308.405V407.521C14.0625 423.185 26.6572 435.84 42.1875 435.84H210.938C226.494 435.84 239.062 423.185 239.062 407.521V308.405C239.062 292.741 226.494 280.086 210.938 280.086H181.143L170.947 259.555C168.574 254.776 163.74 250.97 158.379 250.97H94.7461C89.3848 250.97 84.5332 254.776 82.1514 259.555L71.9736 280.086H42.1875ZM52.4883 2.2471C72.501 -1.11136 92.9004 5.46751 107.227 19.9137L112.5 24.4182L116.982 19.9137C132.1 5.46751 152.49 -1.11136 172.529 2.2471C202.764 7.32948 225 33.7193 225 64.6312V67.2065C225 85.5696 217.441 103.092 204.082 115.659L124.629 190.261C121.377 193.359 116.982 195.129 112.5 195.129C108.018 195.129 103.623 193.359 100.371 190.261L20.9092 115.659C7.57354 103.092 0 85.5696 0 67.2065V64.6312C0 33.7193 22.2012 7.32948 52.4883 2.2471ZM97.2949 29.9227C86.1592 18.7102 70.3301 13.6039 54.7998 16.2146C31.2891 20.1615 13.2715 40.6397 13.2715 64.6312V67.2065C13.2715 81.6581 20.0215 95.4813 30.5068 105.304L109.951 179.907C110.654 180.615 111.533 180.969 111.709 180.969C113.467 180.969 114.346 180.615 115.049 179.907L194.502 105.304C204.961 95.4813 210.146 81.6581 210.146 67.2065V64.6312C210.146 40.6397 193.711 20.1615 170.156 16.2146C153.896 13.6039 138.076 18.7102 127.705 29.9227L111.709 45.2416L97.2949 29.9227Z" fill="currentColor"
/></symbol>
</defs>

<defs>
<symbol id="others" viewBox="0 0 450 450">
<path d="M287.67 287.085V273.165C287.765 261.328 289.186 251.384 291.932 243.335C294.678 235.286 299.034 228.136 305 221.886C310.966 215.542 318.778 209.15 328.438 202.71C336.676 197.028 343.4 191.489 348.608 186.091C353.816 180.598 357.604 174.869 359.972 168.903C362.434 162.938 363.665 156.403 363.665 149.301C363.665 138.222 361.013 128.468 355.71 120.04C350.502 111.517 343.4 104.888 334.403 100.153C325.502 95.3239 315.464 92.9091 304.29 92.9091C293.116 92.9091 282.983 95.4186 273.892 100.438C264.801 105.456 257.509 112.511 252.017 121.602C246.525 130.693 243.636 141.394 243.352 153.705H225.312C225.597 138.648 229.195 125.343 236.108 113.79C243.116 102.237 252.538 93.2405 264.375 86.8011C276.212 80.2671 289.517 77 304.29 77C319.157 77 332.367 80.1723 343.92 86.5171C355.473 92.7671 364.517 101.384 371.051 112.369C377.68 123.354 380.994 135.854 380.994 149.869C380.994 158.676 379.574 166.773 376.733 174.159C373.892 181.451 369.441 188.364 363.381 194.898C357.32 201.432 349.46 208.061 339.801 214.784C330.994 220.845 324.034 226.621 318.92 232.114C313.901 237.606 310.35 243.572 308.267 250.011C306.184 256.451 305.142 264.169 305.142 273.165V287.085H287.67Z M296.761 373.733C292.5 373.733 288.854 372.265 285.824 369.33C282.888 366.299 281.42 362.653 281.42 358.392C281.42 354.225 282.888 350.627 285.824 347.597C288.854 344.566 292.5 343.051 296.761 343.051C301.023 343.051 304.621 344.566 307.557 347.597C310.587 350.627 312.102 354.225 312.102 358.392C312.102 361.233 311.392 363.837 309.972 366.205C308.646 368.477 306.799 370.324 304.432 371.744C302.159 373.07 299.602 373.733 296.761 373.733Z M162.324 177.568V163.648H144.852V177.568C144.852 186.564 143.811 194.282 141.727 200.722C139.644 207.161 136.093 213.127 131.074 218.619C125.96 224.112 119 229.888 110.193 235.949C100.534 242.672 92.6743 249.301 86.6137 255.835C80.5531 262.369 76.1024 269.282 73.2614 276.574C70.4205 283.96 69.0001 292.057 69.0001 300.864C69.0001 314.879 72.3145 327.379 78.9432 338.364C85.4773 349.348 94.5209 357.966 106.074 364.216C117.627 370.561 130.837 373.733 145.705 373.733C160.477 373.733 173.782 370.466 185.619 363.932C197.457 357.492 206.879 348.496 213.886 336.943C220.799 325.39 224.398 312.085 224.682 297.028H206.642C206.358 309.339 203.47 320.04 197.977 329.131C192.485 338.222 185.193 345.276 176.102 350.295C167.011 355.314 156.879 357.824 145.705 357.824C134.53 357.824 124.492 355.409 115.591 350.579C106.595 345.845 99.4925 339.216 94.2841 330.693C88.9811 322.265 86.3296 312.511 86.3296 301.432C86.3296 294.329 87.5607 287.795 90.0228 281.829C92.3902 275.864 96.1781 270.134 101.386 264.642C106.595 259.244 113.318 253.704 121.557 248.023C131.216 241.583 139.028 235.191 144.994 228.847C150.96 222.597 155.316 215.447 158.063 207.398C160.809 199.348 162.229 189.405 162.324 177.568Z M164.171 81.4034C161.14 78.4677 157.494 76.9999 153.233 76.9999C150.392 76.9999 147.835 77.6628 145.563 78.9886C143.195 80.409 141.349 82.2556 140.023 84.5284C138.602 86.8958 137.892 89.4999 137.892 92.3409C137.892 96.5075 139.407 100.106 142.438 103.136C145.373 106.167 148.972 107.682 153.233 107.682C157.494 107.682 161.14 106.167 164.171 103.136C167.106 100.106 168.574 96.5075 168.574 92.3409C168.574 88.0795 167.106 84.4337 164.171 81.4034Z M50 0C22.3857 0 0 22.3857 0 50V400C0 427.614 22.3857 450 50 450H400C427.614 450 450 427.614 450 400V50C450 22.3857 427.614 0 400 0H50ZM50 15H400C419.33 15 435 30.6699 435 50V400C435 419.33 419.33 435 400 435H50C30.6699 435 15 419.33 15 400V50C15 30.6699 30.6699 15 50 15Z" fill="currentColor" /></symbol>
</defs>

<defs>
<symbol id="github" viewBox="0 0 450 450">
<path d="M150.514 362.339C150.514 364.2 148.427 365.689 145.796 365.689C142.802 365.968 140.716 364.479 140.716 362.339C140.716 360.478 142.802 358.99 145.433 358.99C148.155 358.71 150.514 360.199 150.514 362.339ZM122.298 358.152C121.663 360.013 123.478 362.153 126.2 362.712C128.558 363.642 131.28 362.712 131.825 360.851C132.369 358.99 130.645 356.849 127.923 356.012C125.565 355.361 122.933 356.291 122.298 358.152ZM162.399 356.57C159.768 357.222 157.954 358.99 158.226 361.13C158.498 362.991 160.857 364.2 163.579 363.549C166.21 362.898 168.024 361.13 167.752 359.269C167.48 357.501 165.03 356.291 162.399 356.57ZM222.097 0C96.2601 0 0 97.9824 0 227.044C0 330.237 63.3266 418.542 153.78 449.621C165.393 451.761 169.476 444.41 169.476 438.362C169.476 432.593 169.204 400.769 169.204 381.229C169.204 381.229 105.696 395.186 92.3589 353.5C92.3589 353.5 82.0161 326.422 67.1371 319.443C67.1371 319.443 46.3609 304.834 68.5887 305.113C68.5887 305.113 91.1794 306.974 103.609 329.12C123.478 365.038 156.774 354.709 169.748 348.568C171.835 333.68 177.732 323.351 184.264 317.21C133.548 311.441 82.379 303.904 82.379 214.389C82.379 188.8 89.2742 175.959 103.79 159.582C101.431 153.534 93.7198 128.596 106.149 96.4005C125.111 90.3522 168.75 121.524 168.75 121.524C186.895 116.313 206.401 113.615 225.726 113.615C245.05 113.615 264.556 116.313 282.702 121.524C282.702 121.524 326.341 90.2592 345.302 96.4005C357.732 128.689 350.02 153.534 347.661 159.582C362.177 176.052 371.069 188.893 371.069 214.389C371.069 304.183 317.631 311.348 266.915 317.21C275.262 324.561 282.339 338.518 282.339 360.385C282.339 391.743 282.067 430.545 282.067 438.176C282.067 444.224 286.24 451.575 297.762 449.435C388.488 418.542 450 330.237 450 227.044C450 97.9824 347.933 0 222.097 0ZM88.1855 320.932C87.0061 321.862 87.2782 324.002 88.8206 325.77C90.2722 327.259 92.3589 327.911 93.5383 326.701C94.7177 325.77 94.4456 323.63 92.9032 321.862C91.4516 320.373 89.3649 319.722 88.1855 320.932ZM78.3871 313.395C77.752 314.604 78.6593 316.093 80.4738 317.024C81.9254 317.954 83.7399 317.675 84.375 316.372C85.0101 315.163 84.1028 313.674 82.2883 312.743C80.4738 312.185 79.0222 312.464 78.3871 313.395ZM107.782 346.521C106.331 347.73 106.875 350.522 108.962 352.29C111.048 354.43 113.679 354.709 114.859 353.22C116.038 352.011 115.494 349.219 113.679 347.451C111.683 345.311 108.962 345.032 107.782 346.521ZM97.4395 332.842C95.9879 333.773 95.9879 336.192 97.4395 338.332C98.8911 340.472 101.341 341.403 102.52 340.472C103.972 339.263 103.972 336.843 102.52 334.703C101.25 332.563 98.8911 331.633 97.4395 332.842Z" fill="currentColor"/></symbol></defs>


<symbol id="fonts" viewBox="0 0 450 450">
<g clip-path="url(#clip0_302_117)">
<path d="M379.688 56.25H225L28.125 365.625H182.812L379.688 56.25Z" fill="#F29900"/>
<path d="M225 56.25H365.625V365.625H225V56.25Z" fill="#1A73E8"/>
<path d="M91.4062 182.812C126.356 182.812 154.688 154.481 154.688 119.531C154.688 84.582 126.356 56.25 91.4062 56.25C56.457 56.25 28.125 84.582 28.125 119.531C28.125 154.481 56.457 182.812 91.4062 182.812Z" fill="#EA4335"/>
<path d="M374.906 281.25L365.625 365.625C318.938 365.625 281.25 327.938 281.25 281.25C281.25 234.562 318.938 196.875 365.625 196.875L374.906 281.25Z" fill="#0D652D"/>
<path d="M295.312 126.562C295.312 107.914 302.72 90.0302 315.907 76.8441C329.093 63.6579 346.977 56.25 365.625 56.25L378.281 126.562L365.625 196.875C346.977 196.875 329.093 189.467 315.907 176.281C302.72 163.095 295.312 145.211 295.312 126.562Z" fill="#174EA6"/>
<path d="M365.625 56.25C384.273 56.25 402.157 63.6579 415.343 76.8441C428.53 90.0302 435.938 107.914 435.938 126.562C435.938 145.211 428.53 163.095 415.343 176.281C402.157 189.467 384.273 196.875 365.625 196.875" fill="#1A73E8"/>
<path d="M365.625 196.875C412.312 196.875 450 234.562 450 281.25C450 327.938 412.312 365.625 365.625 365.625" fill="#34A853"/>
</g>
<defs>
<clipPath id="clip0_302_117">
<rect width="450" height="450" fill="white"/>
</clipPath>
</defs>
</symbol>
<symbol id="colors" viewBox="0 0 450 450">
<g clip-path="url(#clip0_302_153)">
<path d="M388.388 280.544H302.344C279.053 280.544 260.156 300.238 260.156 323.536C260.156 326.525 260.508 329.426 261.035 332.24C262.969 341.207 266.748 349.12 270.615 358.527C275.889 370.659 281.25 382.703 281.25 395.453C281.25 423.499 262.266 448.819 234.317 449.962C231.24 450.049 237.393 449.962 234.317 449.962C110.039 449.962 0 349.383 0 225.068C0 100.753 100.723 0 225 0C349.277 0 450 100.753 450 225.068C450 225.859 449.209 226.651 449.209 227.442C449.647 259.532 420.469 281.335 388.388 281.335V280.544Z" fill="#1D1F23"/>
<path d="M225 13.2715C341.455 13.2715 435.938 108.545 435.938 224.209C436.466 246.446 415.106 266.397 388.388 266.397H302.344C271.319 266.397 246.094 292.412 246.094 323.438C246.094 327.393 246.533 330.557 247.324 335.039C249.471 345.346 253.885 355.4 257.612 363.891L257.871 364.482C262.266 374.853 267.188 386.805 267.188 395.332C267.188 417.832 252.334 434.97 233.701 435.761C117.246 435.761 14.0625 341.455 14.0625 224.209C14.0625 108.545 108.545 13.2715 225 13.2715Z" fill="#282C33"/>
<path d="M92.8631 234.819C117.038 234.819 136.636 215.221 136.636 191.046C136.636 166.871 117.038 147.273 92.8631 147.273C68.6883 147.273 49.0905 166.871 49.0905 191.046C49.0905 215.221 68.6883 234.819 92.8631 234.819Z" fill="#56B6C2"/>
<path d="M121.501 349.364C145.676 349.364 165.274 329.767 165.274 305.591C165.274 281.416 145.676 261.819 121.501 261.819C97.326 261.819 77.7281 281.416 77.7281 305.591C77.7281 329.767 97.326 349.364 121.501 349.364Z" fill="#F36379"/>
<path d="M196.364 400.909C209.92 400.909 220.91 389.921 220.91 376.365C220.91 362.808 209.92 351.819 196.364 351.819C182.808 351.819 171.819 362.808 171.819 376.365C171.819 389.921 182.808 400.909 196.364 400.909Z" fill="#F0CEEB"/>
<path d="M219.682 251.181C243.857 251.181 263.455 231.583 263.455 207.409C263.455 183.234 243.857 163.636 219.682 163.636C195.507 163.636 175.91 183.234 175.91 207.409C175.91 231.583 195.507 251.181 219.682 251.181Z" fill="#A9DC76"/>
<path d="M158.32 140.727C182.495 140.727 202.092 121.129 202.092 96.9539C202.092 72.7788 182.495 53.1809 158.32 53.1809C134.145 53.1809 114.547 72.7788 114.547 96.9539C114.547 121.129 134.145 140.727 158.32 140.727Z" fill="#AB9DF2"/>
<path d="M281.044 140.727C305.22 140.727 324.817 121.129 324.817 96.9539C324.817 72.7788 305.22 53.1809 281.044 53.1809C256.869 53.1809 237.272 72.7788 237.272 96.9539C237.272 121.129 256.869 140.727 281.044 140.727Z" fill="#F78C6C"/>
<path d="M358.773 234.819C382.946 234.819 402.544 215.221 402.544 191.046C402.544 166.871 382.946 147.273 358.773 147.273C334.598 147.273 315 166.871 315 191.046C315 215.221 334.598 234.819 358.773 234.819Z" fill="#E8D938"/>
</g>
<defs>
<clipPath id="clip0_302_153">
<rect width="450" height="450" fill="white"/>
</clipPath>
</defs></symbol>


<symbol id="undraw" viewBox="0 0 676 676">
<path d="m938 450a337.10014 337.10014 0 0 1 -24.55 126.7c-.04.09-.07.17-.11.26v.01a336.51307 336.51307 0 0 1 -42.79 75.64q-5.055 6.75-10.43 13.22c-1.31 1.58-2.64 3.15-3.97 4.7q-10.275 11.925-21.62 22.85-2.64 2.54994-5.34 5.04c-.42.39-.84.77-1.26 1.16a337.81887 337.81887 0 0 1 -27.65 22.7q-9.675 7.155-19.86 13.59-2.235 1.425-4.5 2.8-3.93 2.4-7.93 4.69-5.22 3-10.57 5.81c-1.44.77-2.88995 1.51-4.34 2.25-2.12 1.09-4.25 2.14-6.4 3.17-.37.18-.74.36-1.11.53-1.4.68-2.82 1.34-4.24 2a334.89638 334.89638 0 0 1 -57.46 20.39c-.11.03-.21.05-.32.08-1.29.33-2.59.65-3.89.96-.97.24-1.95.47-2.93.69a2.48782 2.48782 0 0 1 -.37.09c-2.01.47-4.02.92-6.05 1.33-1.14.24-2.28.48-3.42.71-.69.15-1.39.28-2.08.41-.87.17-1.73.33-2.6.5-.48.1-.96.18-1.45.26-1.1.2-2.2.4-3.29.59-1.86.32-3.74.63-5.61.91-1.36.21-2.71.41-4.07.6-1.6.23-3.2.44-4.81.64-.44.07-.88.12-1.32.17q-.85491.10492-1.71.21c-1.15.14-2.3.27-3.46.39-.6.07-1.19.13-1.79.19q-1.71.18-3.42.33c-1.47.13995-2.94.26-4.42.38-1.8.14-3.59.27-5.4.38-1.16.07-2.32.14-3.49.2-2.98.16-5.96.27-8.96.35-1.49.04-2.99.07-4.49.09h-.03c-1.49.02-2.99.03-4.49.03a339.151 339.151 0 0 1 -45.45-3.04q-16.575-2.22-32.62-6.02c-.43-.1-.86-.2-1.28-.31-1.08-.25-2.15-.52-3.22-.79-.95-.24-1.89-.49-2.84-.74a335.35735 335.35735 0 0 1 -70.6-27.19c-.11-.06-.23-.12-.34-.18-.65-.34-1.29-.67-1.93-1.02q-2.115-1.11-4.21-2.26-11.925-6.55507-23.24-14.02-2.91-1.905-5.76-3.87c-.61-.42-1.21-.84-1.81-1.26-.63-.44-1.26-.88-1.88-1.32q-2.475-1.755-4.92-3.55-10.125-7.44-19.65-15.61a339.74031 339.74031 0 0 1 -59.16-65.85q-8.775-12.78-16.38-26.38a336.38981 336.38981 0 0 1 -42.71-164.59c0-186.67 151.33-338 338-338s338 151.33 338 338z" fill="#6c63ff" transform="translate(-262 -112)"/><path d="m654.35 778.63c1.08-.25 2.15-.52 3.22-.79.95-.24 1.89-.49 2.84-.74.05-1.99.12006-4.18.19-6.55.59-18.56 1.98-48.44 5.26-84.44q.27-2.895.54-5.83c1.17-12.2 2.54-25.03 4.18-38.33.05-.44.11-.87.16-1.31 1.33-10.78 2.84-21.85 4.54-33.13q1.78491-11.835 3.86-23.93c.1-.56.2-1.13.3-1.69.4-2.33.81-4.65 1.23-6.99 1.17-6.51 2.42-13.06 3.73-19.61 4.61-23.04 10.1-46.22 16.65-68.77a550.90913 550.90913 0 0 1 24.53-68.61 338.80588 338.80588 0 0 1 26.74-49.83c.15-.23.3-.45.45-.68 13.15-19.81 28.18-36.62 45.34-49.19l-3.56-4.86q-24.66 18.075-45.24 48.1c-.07.1-.13.19-.2.29a327.43692 327.43692 0 0 0 -26.92 48.26 527.39526 527.39526 0 0 0 -25.68 69.37q-9.84 33.03-17.65 71.57-2.74494 13.575-5.24 27.82c-.28 1.62-.56 3.24-.84 4.87 0 .02-.01.05-.01.07-.43 2.5-.84 5-1.26 7.53q-1.56006 9.555-2.94 18.96-2.13 14.49-3.85 28.48-.56991 4.62-1.1 9.17-.75 6.42-1.42 12.67-.945 8.7-1.73 17.03l-.15 1.53c-.08.88-.16 1.76-.24 2.63-4.06 43.79-5.33 79.16-5.73 96.93z" opacity=".2" transform="translate(-262 -112)"/><path d="m731.01 749.91c.11-.06.23-.12.34-.18 2.06-1.07 4.1-2.16 6.14-3.28.67-7.98 1.57-16.75 2.75-25.97.25-1.9.5-3.83.78-5.77.13995-1.04.29-2.09.44-3.15 1.18-8.12 2.58-16.5 4.26-24.92 6.83-34.36 18.17-69.48 37-91.16 1.01-1.17 2.04-2.29 3.11005-3.38a67.66245 67.66245 0 0 1 8.61-7.55l-3.56-4.85a77.071 77.071 0 0 0 -11.8 10.79q-1.875 2.085-3.66 4.34c-17.33 21.81-28.15 54.1-34.88995 86.07-1.76 8.34-3.24 16.67005-4.5 24.78q-.48 3.18-.92 6.3c-1.9501 13.74-3.2401 26.72-4.1001 37.93z" opacity=".2" transform="translate(-262 -112)"/><circle cx="569.73826" cy="175.98167" opacity=".2" r="30.08857"/><circle cx="560.0486" cy="434.99083" opacity=".2" r="30.08857"/><path d="m712.28551 338.52139c6.38046 35.99732-7.70456 68.59225-7.70456 68.59225s-24.42979-25.76825-30.81025-61.76557 7.70457-68.59225 7.70457-68.59225 24.42979 25.76825 30.81024 61.76557z" opacity=".2" transform="translate(-262 -112)"/><path d="m812.28234 423.97122c-34.33494 12.555-68.83676 4.498-68.83676 4.498s21.16612-28.41279 55.50106-40.96784 68.83675-4.498 68.83675-4.498-21.16611 28.41279-55.50105 40.96784z" opacity=".2" transform="translate(-262 -112)"/><path d="m818.10466 653.333c-24.066 8.80008-48.28314 3.0594-48.28314 3.0594s14.80161-20.00841 38.86762-28.80849 48.28314-3.0594 48.28314-3.0594-14.80161 20.00841-38.86762 28.80849z" opacity=".2" transform="translate(-262 -112)"/><path d="m701.96 648.27 1.22.63c-.11994 1.3-.41 2.1-1.22-.63z" fill="#2f2e41" transform="translate(-262 -112)"/><path d="m703.57007 648.69c.01.14.02991.29.03992.43l-.43006-.22c.01-.13.02-.27.04-.41.10014-1.75-.01998-3.82.35014.2z" fill="#2f2e41" transform="translate(-262 -112)"/><circle cx="311.68289" cy="324.64092" fill="#2f2e41" r="164.20902"/><circle cx="325.20044" cy="382.71266" fill="#d0cde1" r="99.44441"/><path d="m814.27 685.31-.12.03-23.13 5.55-48.16 11.56-6.57 1.58-73.24 17.57-6.22 1.5-177.69 42.64a333.63858 333.63858 0 0 1 -35.15-15.83c-.11-.06-.23-.12-.34-.18-.65-.34-1.29-.67-1.93-1.02q-2.115-1.11-4.21-2.26-11.925-6.55507-23.24-14.02-2.91-1.905-5.76-3.87c-.61-.42-1.21-.84-1.81-1.26-.63-.44-1.26-.88-1.88-1.32q-2.475-1.755-4.92-3.55c17.26-31.37 58.36-52.22 99.46-63.63 31.02-8.62 37.84-36.95 37.25-62.16a146.9523 146.9523 0 0 0 -1.46-17.18 167.47773 167.47773 0 0 0 -5.96-26.74l99.45 3.32 10.26 23.64a53.49156 53.49156 0 0 0 -.27 7.82c.78 19.39 12.75 31.93 27.52 40.02 1.92 1.05005 3.89 2.03 5.89 2.94 24.22 11.01 52.73 11.76 52.73 11.76a101.52 101.52 0 0 1 26.09.49q3.15.48 6.12 1.15a88.13944 88.13944 0 0 1 32.11 14.37 91.60126 91.60126 0 0 1 10.41 8.63 82.67563 82.67563 0 0 1 14.77 18.45z" fill="#d0cde1" transform="translate(-262 -112)"/><path d="m829.19 698.42c-.42.39-.84.77-1.26 1.16a337.81887 337.81887 0 0 1 -27.65 22.7q-9.675 7.155-19.86 13.59-2.235 1.425-4.5 2.8-3.93 2.4-7.93 4.69-5.22 3-10.57 5.81c-1.44.77-2.88995 1.51-4.34 2.25-2.12 1.09-4.25 2.14-6.4 3.17-.37.18-.74.36-1.11.53l-4.23-3.51 49.68-60.72 9.99-12.21s3.99 0 13.14 6.66a130.9934 130.9934 0 0 1 14.3 12.34c.24.25.49.49.74.74z" fill="#d0cde1" transform="translate(-262 -112)"/><g fill="#2f2e41"><path d="m828.49 697.74a11.39223 11.39223 0 0 1 -.56 1.84 337.81887 337.81887 0 0 1 -27.65 22.7 117.95015 117.95015 0 0 1 -25.79 6.13s.75 3.76 1.43 10.26q-3.93 2.4-7.93 4.69-5.22 3-10.57 5.81c-1.44.77-2.88995 1.51-4.34 2.25-2.12 1.09-4.25 2.14-6.4 3.17-.37.18-.74.36-1.11.53-1.4.68-2.82 1.34-4.24 2a334.89638 334.89638 0 0 1 -57.46 20.39c-.11.03-.21.05-.32.08-1.29.33-2.59.65-3.89.96-.97.24-1.95.47-2.93.69a2.48782 2.48782 0 0 1 -.37.09c-2.01.47-4.02.92-6.05 1.33-1.14.24-2.28.48-3.42.71-.69.15-1.39.28-2.08.41-.87.17-1.73.33-2.6.5-.48.1-.96.18-1.45.26-1.1.2-2.2.4-3.29.59-1.86.32-3.74.63-5.61.91-1.36.21-2.71.41-4.07.6-1.6.23-3.2.44-4.81.64-.44.07-.88.12-1.32.17q-.85491.10492-1.71.21c-1.15.14-2.3.27-3.46.39-.6.07-1.19.13-1.79.19q-1.71.18-3.42.33c-1.47.13995-2.94.26-4.42.38-1.8.14-3.59.27-5.4.38-1.16.07-2.32.14-3.49.2-2.98.16-5.96.27-8.96.35-1.49.04-2.99.07-4.49.09h-.03c-1.49.02-2.99.03-4.49.03a339.151 339.151 0 0 1 -45.45-3.04q-16.575-2.22-32.62-6.02c-.43-.1-.86-.2-1.28-.31-1.08-.25-2.15-.52-3.22-.79-.95-.24-1.89-.49-2.84-.74a335.35735 335.35735 0 0 1 -70.6-27.19c-.11-.06-.23-.12-.34-.18-.65-.34-1.29-.67-1.93-1.02 54.89-12.79 141.63-32.96 216.9-50.24q3.165-.72 6.29-1.44c27.8-6.38 53.84-12.32 75.87006-17.29q3.42-.765 6.69995-1.5c23.67-5.32 42.05005-9.36 52.02-11.38a81.48836 81.48836 0 0 1 8.14-1.43l20.81 32.25z" transform="translate(-262 -112)"/><circle cx="161.4491" cy="205.85142" r="48.91333"/><circle cx="461.91668" cy="191.87618" r="48.91333"/><path d="m671.50954 282.91333a48.91227 48.91227 0 0 1 43.67262-48.62417 48.91338 48.91338 0 1 0 0 97.24833 48.91227 48.91227 0 0 1 -43.67262-48.62416z" transform="translate(-262 -112)"/><path d="m368.796 357.41647a48.91227 48.91227 0 0 1 -2.83554-65.296 48.91337 48.91337 0 1 0 68.06011 69.46264 48.91226 48.91226 0 0 1 -65.22457-4.16664z" transform="translate(-262 -112)"/><path d="m573.68289 359.77712c-57.88732 0-104.81427 27.37407-104.81427 61.14166 0 15.10906 9.43269 28.91775 25.003 39.58556l20.1779-14.62031-5.48723 22.90446c2.27682 1.05513 4.60162 2.07636 7.02643 3.02019l30.1437-35.16776v43.20369a175.95757 175.95757 0 0 0 27.95047 2.21583c57.88732 0 104.81427-27.37407 104.81427-61.14166s-46.92695-61.14166-104.81427-61.14166z" transform="translate(-262 -112)"/><path d="m675.00335 303.87618s-7.59666 34.93809 39.87428 48.91333z" transform="translate(-262 -112)"/><path d="m468.86862 310.23519s17.469 39.06051-34.93809 56.52955z" transform="translate(-262 -112)"/></g><ellipse cx="489.41344" cy="514.60154" fill="#d0cde1" rx="8.28703" ry="19.88888" transform="matrix(.96297713 -.26958309 .26958309 .96297713 -382.60837 38.98959)"/><ellipse cx="688.30226" cy="498.02747" fill="#d0cde1" rx="19.88888" ry="8.28703" transform="matrix(.06147064 -.99810889 .99810889 .06147064 -113.09381 1042.41397)"/></symbol>


<symbol id="react-ui-libraries" viewBox="-10.5 -9.45 21 18.9">
      <circle cx="0" cy="0" r="2" fill="#3B82F6" />
      <g stroke="#3B82F6" strokeWidth="1" fill="none">
        <ellipse rx="10" ry="4.5" />
        <ellipse rx="10" ry="4.5" transform="rotate(60)" />
        <ellipse rx="10" ry="4.5" transform="rotate(120)" />
      </g>
</symbol>

<symbol id="react-native-ui-libraries" viewBox="-10.5 -9.45 21 18.9">
      <circle cx="0" cy="0" r="2" fill="#3B82F6" />
      <g stroke="#3B82F6" strokeWidth="1" fill="none">
        <ellipse rx="10" ry="4.5" />
        <ellipse rx="10" ry="4.5" transform="rotate(60)" />
        <ellipse rx="10" ry="4.5" transform="rotate(120)" />
      </g>
</symbol>

<symbol id="figma" viewBox="0 0 190 285">
<path d="M95 142.5C95 129.902 100.004 117.82 108.912 108.912C117.82 100.004 129.902 95 142.5 95C155.098 95 167.18 100.004 176.088 108.912C184.996 117.82 190 129.902 190 142.5C190 155.098 184.996 167.18 176.088 176.088C167.18 184.996 155.098 190 142.5 190C129.902 190 117.82 184.996 108.912 176.088C100.004 167.18 95 155.098 95 142.5V142.5Z" fill="#1ABCFE"/>
<path d="M0 237.5C0 224.902 5.00445 212.82 13.9124 203.912C22.8204 195.004 34.9022 190 47.5 190H95V237.5C95 250.098 89.9955 262.18 81.0876 271.088C72.1796 279.996 60.0978 285 47.5 285C34.9022 285 22.8204 279.996 13.9124 271.088C5.00445 262.18 0 250.098 0 237.5H0Z" fill="#0ACF83"/>
<path d="M95 0V95H142.5C155.098 95 167.18 89.9955 176.088 81.0876C184.996 72.1796 190 60.0978 190 47.5C190 34.9022 184.996 22.8204 176.088 13.9124C167.18 5.00445 155.098 0 142.5 0L95 0Z" fill="#FF7262"/>
<path d="M0 47.5C0 60.0978 5.00445 72.1796 13.9124 81.0876C22.8204 89.9955 34.9022 95 47.5 95H95V0H47.5C34.9022 0 22.8204 5.00445 13.9124 13.9124C5.00445 22.8204 0 34.9022 0 47.5H0Z" fill="#F24E1E"/>
<path d="M0 142.5C0 155.098 5.00445 167.18 13.9124 176.088C22.8204 184.996 34.9022 190 47.5 190H95V95H47.5C34.9022 95 22.8204 100.004 13.9124 108.912C5.00445 117.82 0 129.902 0 142.5H0Z" fill="#A259FF"/>
</symbol>

<symbol id="error404" viewBox="0 0 450 450">
<circle cx="225" cy="225" r="225" fill="#AB1D1D"/>
<rect x="35" y="165" width="380" height="120" fill="#D9D9D9"/>
</symbol>

<symbol id="getbootstrap" viewBox="0 0 450 450"><path d="M408.363 171.072C400.756 146.33 399.635 115.983 400.516 92.5222C401.397 68.1005 382.34 45.6806 356.717 45.6806H93.4431C67.7402 45.6806 48.7633 68.1806 49.6441 92.5222C50.4448 115.983 49.4039 146.33 41.7972 171.072C34.1103 195.894 21.2189 211.588 0 213.59V236.41C21.1388 238.412 34.1103 254.106 41.7972 278.928C49.4039 303.67 50.5249 334.017 49.6441 357.478C48.7633 381.899 67.8203 404.319 93.4431 404.319H356.637C382.34 404.319 401.317 381.819 400.436 357.478C399.635 334.017 400.676 303.67 408.283 278.928C415.97 254.106 428.861 238.412 450 236.41V213.59C428.941 211.588 415.97 195.894 408.363 171.072Z" fill="#8316A9"/>
<path d="M230.525 320.565H152.135V129.755H230.125C264.795 129.755 287.536 148.492 287.536 177.318C287.536 197.576 272.242 215.672 252.705 218.795V219.835C279.288 222.718 297.144 241.134 297.144 266.517C297.144 300.227 272.082 320.565 230.525 320.565ZM257.189 181.481C257.189 163.786 244.698 154.017 222.758 154.017H182.402V211.028H216.432C242.696 210.948 257.189 200.378 257.189 181.481ZM222.518 233.528H182.402V296.303H224.279C251.664 296.303 266.157 285.334 266.157 264.675C266.157 244.097 251.263 233.528 222.518 233.528Z" fill="white"/>
</symbol>

<symbol id="chrome" viewBox="0 0 450 450">
<path d="M225.005 337.495C287.14 337.495 337.509 287.123 337.509 224.988C337.509 162.853 287.14 112.481 225.005 112.481C162.869 112.481 112.5 162.853 112.5 224.988C112.5 287.123 162.869 337.495 225.005 337.495Z" fill="white"/>
<path d="M127.571 281.268L30.1535 112.535C10.4008 146.738 0 185.537 0 225.035C0 264.534 10.3961 303.333 30.1465 337.535C49.8969 371.738 78.3047 400.141 112.512 419.882C146.719 439.623 185.523 450.012 225.019 450L322.436 281.268V281.242C312.569 298.354 298.37 312.565 281.268 322.446C264.165 332.326 244.763 337.53 225.012 337.533C205.26 337.536 185.856 332.338 168.751 322.462C151.646 312.586 137.443 298.38 127.571 281.272V281.268Z" fill="#229342"/>
<path d="M322.429 281.261L225.014 449.993C264.51 450 303.312 439.604 337.517 419.858C371.721 400.113 400.125 371.707 419.87 337.5C439.615 303.293 450.006 264.491 450 224.995C449.993 185.499 439.588 146.7 419.83 112.5H224.998L224.974 112.517C244.725 112.507 264.131 117.699 281.239 127.569C298.349 137.44 312.555 151.639 322.434 168.744C332.312 185.848 337.513 205.252 337.512 225.004C337.512 244.756 332.311 264.159 322.432 281.263L322.429 281.261Z" fill="#FBC116"/>
<path d="M225.005 314.081C274.195 314.081 314.072 274.205 314.072 225.012C314.072 175.819 274.195 135.945 225.005 135.945C175.814 135.945 135.938 175.821 135.938 225.012C135.938 274.202 175.814 314.081 225.005 314.081Z" fill="#1A73E8"/>
<path d="M225.005 112.507H419.837C400.094 78.3 371.693 49.8922 337.488 30.1418C303.285 10.3927 264.484 -0.00299782 224.988 6.4846e-07C185.492 0.00236285 146.693 10.4032 112.493 30.1583C78.2918 49.9123 49.8943 78.3227 30.156 112.533L127.573 281.265L127.599 281.28C117.715 264.179 112.508 244.777 112.502 225.025C112.496 205.273 117.691 185.868 127.564 168.761C137.436 151.654 151.642 137.447 168.747 127.573C185.851 117.699 205.257 112.5 225.01 112.505L225.005 112.507Z" fill="#E33B2E"/>
</symbol>

<symbol id="tailwindcss" viewBox="0 0 500 300">
<path d="M244.553 0.0984341C156.59 2.892 130.447 65.6789 124.455 99.6936C132.262 87.0853 156.863 59.4207 193.083 59.4207C235.294 59.4207 267.429 106.497 287.037 121.192C310.859 139.044 358.727 162.616 421.569 143.505C471.678 128.267 494.917 75.1121 500 49.896C475.763 82.8223 438.998 102.599 393.519 79.2848C362.2 63.2298 338.78 -2.89432 244.553 0.0984341ZM120.098 149.491C32.1351 152.285 5.99129 215.072 0 249.086C7.80681 236.478 32.4074 208.814 68.6274 208.814C110.839 208.814 142.974 255.89 162.582 270.584C186.404 288.437 234.272 312.009 297.113 292.898C347.222 277.659 370.461 224.505 375.545 199.289C351.307 232.215 314.542 251.992 269.063 228.678C237.745 212.623 214.325 146.499 120.098 149.491Z" fill="#07B6D5"/>
</symbol>

<symbol id="javascript" viewBox="0 0 450 450">
<path d="M401.786 0H48.2143C21.596 0 0 21.596 0 48.2143V401.786C0 428.404 21.596 450 48.2143 450H401.786C428.404 450 450 428.404 450 401.786V48.2143C450 21.596 428.404 0 401.786 0Z" fill="#C7B300"/>
<path d="M181.708 414.743C219.174 414.743 244.888 394.754 244.888 350.96V206.618H202.6V350.357C202.6 371.551 193.761 376.975 179.9 376.975C165.335 376.975 159.308 367.031 152.679 355.279L118.225 376.071C128.27 397.266 147.857 414.743 181.708 414.743Z" fill="black"/>
<path d="M267.891 371.551C280.245 396.06 305.658 414.743 344.933 414.743C385.011 414.743 414.944 393.85 414.944 355.882C414.944 320.525 394.754 304.754 358.795 289.386L348.248 284.866C330.067 276.931 322.232 271.808 322.232 259.152C322.232 248.906 330.067 241.071 342.422 241.071C354.576 241.071 362.411 246.194 369.643 259.152L402.589 238.058C388.728 213.549 369.442 204.208 342.522 204.208C304.855 204.208 280.647 228.315 280.647 260.056C280.647 294.509 300.837 310.882 331.373 323.839L341.92 328.359C361.306 336.897 372.757 342.02 372.757 356.484C372.757 368.638 361.507 377.377 344.029 377.377C323.237 377.377 311.384 366.429 302.344 351.663L267.891 371.551Z" fill="black"/>
</symbol>

<symbol id="css" viewBox="0 0 450 450">
<path d="M33 0L67.9 397.567L225 450L382.1 397.567L417 0H33Z" fill="#1572B6"/>
<path d="M225 36.1606V64.4022V413.839L351.08 369.833L379 36.1606H225Z" fill="#33A9DC"/>
<path d="M341.3 127.868L346.1 80.3572H103.9L109.7 127.868H232.6L226.1 130.58L114 177.489L117.6 223.996L117.8 223.895V223.996L284.1 224.498L280.4 286.373L225.7 301.842L173.1 288.482L169.9 250.011H121L127.4 324.241L226.2 353.571L324.4 324.743L337.2 177.489H225.7L226 177.388L341.3 127.868Z" fill="#EBFFFB"/>
</symbol>

<symbol id="stock-videos" viewBox="0 0 450 450">
<path d="M295.6 306C293.5 310.2 290.1 313.5 286 315.6C281.3 318 275.1 318 262.8 318H150.3C118 318 101.8 318 89.5 311.7C78.6001 306.2 69.7998 297.3 64.2998 286.4C58 274 58 257.9 58 225.5V166.3C58 153.9 58 147.8 60.3999 143C62.5 138.8 65.8999 135.5 70 133.4C74.7002 131 80.8999 131 93.2002 131H205.601C237.9 131 254.1 131 266.4 137.3C277.3 142.8 286.1 151.7 291.6 162.6C297.9 175 297.9 191.2 297.9 223.5V282.7H298C298 295.1 298 301.2 295.6 306Z" fill="currentColor"/>
<path d="M390.6 307.9C387.8 313.7 381.3 316.7 375.1 315.2C372.1 314.4 368.3 311.3 360.7 305L330 279.2C325 275 322.5 272.9 320.4 270.5C316.4 265.7 313.6 259.9 312.5 253.7C312 250.6 312 247.3 312 240.8V207.499C312 199.2 312 196.2 313.1 192.1C314.3 187.8 316.2 183.7 318.7 180C321.1 176.5 323.4 174.5 329.9 169.2L360.7 143.5L361.109 143.161C368.434 137.089 372.056 134.085 375.1 133.3C381.3 131.8 387.8 134.8 390.6 140.6C392 143.4 392 148.3 392 158.2V290.3C392 300.1 392 305 390.6 307.9Z" fill="currentColor"/>
<path d="M450 225C450 349.264 349.264 450 225 450C100.736 450 0 349.264 0 225C0 100.736 100.736 0 225 0C349.264 0 450 100.736 450 225ZM430 225C430 111.782 338.218 20 225 20C111.782 20 20 111.782 20 225C20 338.218 111.782 430 225 430C338.218 430 430 338.218 430 225Z" fill="currentColor"/>
</symbol>

<symbol id="svelte" viewBox="0 0 98.1 118">
<path class="st0" d="M91.8,15.6C80.9-0.1,59.2-4.7,43.6,5.2L16.1,22.8C8.6,27.5,3.4,35.2,1.9,43.9c-1.3,7.3-0.2,14.8,3.3,21.3
	c-2.4,3.6-4,7.6-4.7,11.8c-1.6,8.9,0.5,18.1,5.7,25.4c11,15.7,32.6,20.3,48.2,10.4l27.5-17.5c7.5-4.7,12.7-12.4,14.2-21.1
	c1.3-7.3,0.2-14.8-3.3-21.3c2.4-3.6,4-7.6,4.7-11.8C99.2,32.1,97.1,22.9,91.8,15.6" fill="#FF3E00"/>
<path class="st1" d="M40.9,103.9c-8.9,2.3-18.2-1.2-23.4-8.7c-3.2-4.4-4.4-9.9-3.5-15.3c0.2-0.9,0.4-1.7,0.6-2.6l0.5-1.6l1.4,1
	c3.3,2.4,6.9,4.2,10.8,5.4l1,0.3l-0.1,1c-0.1,1.4,0.3,2.9,1.1,4.1c1.6,2.3,4.4,3.4,7.1,2.7c0.6-0.2,1.2-0.4,1.7-0.7L65.5,72
	c1.4-0.9,2.3-2.2,2.6-3.8c0.3-1.6-0.1-3.3-1-4.6c-1.6-2.3-4.4-3.3-7.1-2.6c-0.6,0.2-1.2,0.4-1.7,0.7l-10.5,6.7
	c-1.7,1.1-3.6,1.9-5.6,2.4c-8.9,2.3-18.2-1.2-23.4-8.7c-3.1-4.4-4.4-9.9-3.4-15.3c0.9-5.2,4.1-9.9,8.6-12.7l27.5-17.5
	c1.7-1.1,3.6-1.9,5.6-2.5c8.9-2.3,18.2,1.2,23.4,8.7c3.2,4.4,4.4,9.9,3.5,15.3c-0.2,0.9-0.4,1.7-0.7,2.6l-0.5,1.6l-1.4-1
	c-3.3-2.4-6.9-4.2-10.8-5.4l-1-0.3l0.1-1c0.1-1.4-0.3-2.9-1.1-4.1c-1.6-2.3-4.4-3.3-7.1-2.6c-0.6,0.2-1.2,0.4-1.7,0.7L32.4,46.1
	c-1.4,0.9-2.3,2.2-2.6,3.8s0.1,3.3,1,4.6c1.6,2.3,4.4,3.3,7.1,2.6c0.6-0.2,1.2-0.4,1.7-0.7l10.5-6.7c1.7-1.1,3.6-1.9,5.6-2.5
	c8.9-2.3,18.2,1.2,23.4,8.7c3.2,4.4,4.4,9.9,3.5,15.3c-0.9,5.2-4.1,9.9-8.6,12.7l-27.5,17.5C44.8,102.5,42.9,103.3,40.9,103.9" fill="#FFFFFF"/>
</symbol>

<symbol id="svelte-ui-libraries" viewBox="0 0 98.1 118">
<path class="st0" d="M91.8,15.6C80.9-0.1,59.2-4.7,43.6,5.2L16.1,22.8C8.6,27.5,3.4,35.2,1.9,43.9c-1.3,7.3-0.2,14.8,3.3,21.3
	c-2.4,3.6-4,7.6-4.7,11.8c-1.6,8.9,0.5,18.1,5.7,25.4c11,15.7,32.6,20.3,48.2,10.4l27.5-17.5c7.5-4.7,12.7-12.4,14.2-21.1
	c1.3-7.3,0.2-14.8-3.3-21.3c2.4-3.6,4-7.6,4.7-11.8C99.2,32.1,97.1,22.9,91.8,15.6" fill="#FF3E00"/>
<path class="st1" d="M40.9,103.9c-8.9,2.3-18.2-1.2-23.4-8.7c-3.2-4.4-4.4-9.9-3.5-15.3c0.2-0.9,0.4-1.7,0.6-2.6l0.5-1.6l1.4,1
	c3.3,2.4,6.9,4.2,10.8,5.4l1,0.3l-0.1,1c-0.1,1.4,0.3,2.9,1.1,4.1c1.6,2.3,4.4,3.4,7.1,2.7c0.6-0.2,1.2-0.4,1.7-0.7L65.5,72
	c1.4-0.9,2.3-2.2,2.6-3.8c0.3-1.6-0.1-3.3-1-4.6c-1.6-2.3-4.4-3.3-7.1-2.6c-0.6,0.2-1.2,0.4-1.7,0.7l-10.5,6.7
	c-1.7,1.1-3.6,1.9-5.6,2.4c-8.9,2.3-18.2-1.2-23.4-8.7c-3.1-4.4-4.4-9.9-3.4-15.3c0.9-5.2,4.1-9.9,8.6-12.7l27.5-17.5
	c1.7-1.1,3.6-1.9,5.6-2.5c8.9-2.3,18.2,1.2,23.4,8.7c3.2,4.4,4.4,9.9,3.5,15.3c-0.2,0.9-0.4,1.7-0.7,2.6l-0.5,1.6l-1.4-1
	c-3.3-2.4-6.9-4.2-10.8-5.4l-1-0.3l0.1-1c0.1-1.4-0.3-2.9-1.1-4.1c-1.6-2.3-4.4-3.3-7.1-2.6c-0.6,0.2-1.2,0.4-1.7,0.7L32.4,46.1
	c-1.4,0.9-2.3,2.2-2.6,3.8s0.1,3.3,1,4.6c1.6,2.3,4.4,3.3,7.1,2.6c0.6-0.2,1.2-0.4,1.7-0.7l10.5-6.7c1.7-1.1,3.6-1.9,5.6-2.5
	c8.9-2.3,18.2,1.2,23.4,8.7c3.2,4.4,4.4,9.9,3.5,15.3c-0.9,5.2-4.1,9.9-8.6,12.7l-27.5,17.5C44.8,102.5,42.9,103.3,40.9,103.9" fill="#FFFFFF"/>
</symbol>

<symbol id="downloadable" viewBox="0 0 384 512">
<path d="M64 0C28.7 0 0 28.7 0 64V448c0 35.3 28.7 64 64 64H320c35.3 0 64-28.7 64-64V160H256c-17.7 0-32-14.3-32-32V0H64zM256 0V128H384L256 0zM216 232V334.1l31-31c9.4-9.4 24.6-9.4 33.9 0s9.4 24.6 0 33.9l-72 72c-9.4 9.4-24.6 9.4-33.9 0l-72-72c-9.4-9.4-9.4-24.6 0-33.9s24.6-9.4 33.9 0l31 31V232c0-13.3 10.7-24 24-24s24 10.7 24 24z" fill="currentColor"/>
</symbol>

<symbol id="downloadable-design-software" viewBox="0 0 384 512">
<path d="M64 0C28.7 0 0 28.7 0 64V448c0 35.3 28.7 64 64 64H320c35.3 0 64-28.7 64-64V160H256c-17.7 0-32-14.3-32-32V0H64zM256 0V128H384L256 0zM216 232V334.1l31-31c9.4-9.4 24.6-9.4 33.9 0s9.4 24.6 0 33.9l-72 72c-9.4 9.4-24.6 9.4-33.9 0l-72-72c-9.4-9.4-9.4-24.6 0-33.9s24.6-9.4 33.9 0l31 31V232c0-13.3 10.7-24 24-24s24 10.7 24 24z" fill="currentColor"/>
</symbol>

<symbol id="ui-graphics" viewBox="0 0 512 512">
<path d="M448 0c-7.2 0-14.2 2.9-19.3 8L384.8 51.9C379.6 49.3 373.9 48 368 48c-10.2 0-20.1 4.1-27.3 11.3l-35 35L276.3 65c-15.6-15.6-40.9-15.6-56.6 0L114.3 170.3c-3.1 3.1-3.1 8.2 0 11.3s8.2 3.1 11.3 0L231 76.3c9.4-9.4 24.6-9.4 33.9 0l29.4 29.4L80.9 319.1c-5.9 5.9-10.1 13.1-12.3 21.1L33.3 467.4 2.3 498.3c-3.1 3.1-3.1 8.2 0 11.3s8.2 3.1 11.3 0l30.9-30.9 127.2-35.3c8-2.2 15.2-6.5 21.1-12.3L452.7 171.3c7.2-7.2 11.3-17.1 11.3-27.3c0-5.9-1.3-11.6-3.9-16.8L504 83.3c5.1-5.1 8-12.1 8-19.3s-2.9-14.2-8-19.3L467.3 8c-5.1-5.1-12.1-8-19.3-8zm2.3 114.3L397.7 61.7 440 19.3c2.1-2.1 5-3.3 8-3.3s5.9 1.2 8 3.3L492.7 56c2.1 2.1 3.3 5 3.3 8s-1.2 5.9-3.3 8l-42.3 42.3zm-9 13.7c4.2 4.2 6.6 10 6.6 16s-2.4 11.8-6.6 16l-247 247L105 317.7l247-247c4.2-4.2 10-6.6 16-6.6s11.8 2.4 16 6.6L441.4 128zM92.2 330.4l1.4-1.4L183 418.3l-1.4 1.4c-3.9 3.9-8.7 6.7-14.1 8.2L51.9 460.1 84 344.5c1.5-5.3 4.3-10.2 8.2-14.1z" fill="currentColor"/>
</symbol>


<symbol id="vue" viewBox="0 0 261.76 226.69">
<g transform="matrix(1.3333 0 0 -1.3333 -76.311 313.34)"><g transform="translate(178.06 235.01)"><path d="m0 0-22.669-39.264-22.669 39.264h-75.491l98.16-170.02 98.16 170.02z" fill="#41b883"/></g><g transform="translate(178.06 235.01)"><path d="m0 0-22.669-39.264-22.669 39.264h-36.227l58.896-102.01 58.896 102.01z" fill="#34495e"/></g></g>
</symbol>

<symbol id="vue-ui-libraries" viewBox="0 0 261.76 226.69">
<g transform="matrix(1.3333 0 0 -1.3333 -76.311 313.34)"><g transform="translate(178.06 235.01)"><path d="m0 0-22.669-39.264-22.669 39.264h-75.491l98.16-170.02 98.16 170.02z" fill="#41b883"/></g><g transform="translate(178.06 235.01)"><path d="m0 0-22.669-39.264-22.669 39.264h-36.227l58.896-102.01 58.896 102.01z" fill="#34495e"/></g></g>
</symbol>

<symbol id="online-design-tools" viewBox="0 0 384 512">
<path d="M112 8c0-4.4-3.6-8-8-8s-8 3.6-8 8V112h16V8zM288 8c0-4.4-3.6-8-8-8s-8 3.6-8 8V112h16V8zM8 144c-4.4 0-8 3.6-8 8s3.6 8 8 8H40v80c0 81.3 63.8 147.6 144 151.8V504c0 4.4 3.6 8 8 8s8-3.6 8-8V391.8c80.2-4.2 144-70.5 144-151.8V160h32c4.4 0 8-3.6 8-8s-3.6-8-8-8H344 328 56 40 8zM192 376c-75.1 0-136-60.9-136-136V160H328v80c0 75.1-60.9 136-136 136z" fill="currentColor"/>
</symbol>


<symbol id="image-compression" viewBox="0 0 512 512">
<path d="M509.7 13.7c3.1-3.1 3.1-8.2 0-11.3s-8.2-3.1-11.3 0l-116 116L329.6 65.6c-6-6-14.6-8.4-22.8-6.3l-.6 .2C295.5 62.1 288 71.7 288 82.7V200c0 13.3 10.7 24 24 24H429.3c11 0 20.6-7.5 23.3-18.2l.2-.6c2-8.2-.4-16.8-6.3-22.8l-52.7-52.7 116-116zM2.3 13.7l116 116L65.6 182.4c-6 6-8.4 14.6-6.3 22.8l.2 .6C62.1 216.5 71.7 224 82.7 224H200c13.3 0 24-10.7 24-24V82.7c0-11-7.5-20.6-18.2-23.3l-.6-.2c-8.2-2-16.8 .4-22.8 6.3l-52.7 52.7L13.7 2.3C10.5-.8 5.5-.8 2.3 2.3s-3.1 8.2 0 11.3zm507.3 496c3.1-3.1 3.1-8.2 0-11.3l-116-116 52.7-52.7c6-6 8.4-14.6 6.3-22.8l-.2-.6c-2.7-10.7-12.3-18.2-23.3-18.2H312c-13.3 0-24 10.7-24 24V429.3c0 11 7.5 20.6 18.2 23.3l.6 .2c8.2 2 16.8-.4 22.8-6.3l52.7-52.7 116 116c3.1 3.1 8.2 3.1 11.3 0zM2.3 498.3c-3.1 3.1-3.1 8.2 0 11.3s8.2 3.1 11.3 0l116-116 52.7 52.7c6 6 14.6 8.4 22.8 6.3l.6-.2c10.7-2.7 18.2-12.3 18.2-23.3V312c0-13.3-10.7-24-24-24H82.7c-11 0-20.6 7.5-23.3 18.2l-.2 .6c-2 8.2 .4 16.8 6.3 22.8l52.7 52.7-116 116zM310.7 74.8c2.7-.7 5.6 .1 7.6 2.1L435.1 193.7c2 2 2.8 4.9 2.1 7.6l-.2 .6c-.9 3.6-4.1 6.1-7.8 6.1H312c-4.4 0-8-3.6-8-8V82.7c0-3.7 2.5-6.9 6.1-7.8l.6-.2zm-109.4 0l.6 .2 0 0c3.6 .9 6.1 4.1 6.1 7.8V200c0 4.4-3.6 8-8 8H82.7c-3.7 0-6.9-2.5-7.8-6.1l-.2-.6c-.7-2.7 .1-5.6 2.1-7.6L193.7 76.9c2-2 4.9-2.8 7.6-2.1l0 0zM310.7 437.2l-.6-.2c-3.6-.9-6.1-4.1-6.1-7.8V312c0-4.4 3.6-8 8-8H429.3c3.7 0 6.9 2.5 7.8 6.1l.2 .6c.7 2.7-.1 5.6-2.1 7.6L318.3 435.1c-2 2-4.9 2.8-7.6 2.1zM201.9 437l-.6 .2c-2.7 .7-5.6-.1-7.6-2.1L76.9 318.3c-2-2-2.8-4.9-2.1-7.6l.2-.6c.9-3.6 4.1-6.1 7.8-6.1H200c4.4 0 8 3.6 8 8V429.3c0 3.7-2.5 6.9-6.1 7.8z"  fill="currentColor"/>
</symbol>


<symbol id="ui-components--kits" viewBox="0 0 450 450">
<path d="M356.077 123.556C372.595 95.2271 365.419 58.4131 338.414 38.5337C309.504 17.252 268.815 23.4365 247.534 52.3462C226.252 81.2563 232.436 121.945 261.346 143.227C288.075 162.902 324.872 159.101 347.092 135.567L383.321 162.237C386.657 164.693 391.352 163.979 393.808 160.644C396.263 157.308 395.549 152.613 392.213 150.157L356.077 123.556ZM329.521 50.6138C351.76 66.9839 356.517 98.2827 340.147 120.521C323.776 142.76 292.478 147.517 270.239 131.146C248 114.776 243.243 83.4775 259.614 61.2388C275.984 39 307.283 34.2432 329.521 50.6138Z M0 100C0 44.7715 44.7715 0 100 0H350C405.229 0 450 44.7715 450 100V110C450 165.229 405.229 210 350 210H100C44.7715 210 0 165.229 0 110V100ZM15 105C15 154.706 55.2944 195 105 195H345C394.706 195 435 154.706 435 105C435 55.2944 394.706 15 345 15H105C55.2944 15 15 55.2944 15 105Z M265.775 337.09C270.95 341.094 270.95 348.906 265.775 352.91L214.868 392.288C208.296 397.372 198.75 392.687 198.75 384.378V305.622C198.75 297.313 208.296 292.628 214.868 297.712L265.775 337.09Z M0 290C0 262.386 22.3857 240 50 240H400C427.614 240 450 262.386 450 290V400C450 427.614 427.614 450 400 450H50C22.3857 450 0 427.614 0 400V290ZM15 290V400C15 419.33 30.6699 435 50 435H400C419.33 435 435 419.33 435 400V290C435 270.67 419.33 255 400 255H50C30.6699 255 15 270.67 15 290Z" fill="currentColor"/>
</symbol>

<symbol id="html--css-templates" viewBox="0 0 24 24">
  <path
    d="M6 6C6 5.44772 6.44772 5 7 5H17C17.5523 5 18 5.44772 18 6C18 6.55228 17.5523 7 17 7H7C6.44771 7 6 6.55228 6 6Z"
    fill="currentColor"
  />
  <path
    d="M6 10C6 9.44771 6.44772 9 7 9H17C17.5523 9 18 9.44771 18 10C18 10.5523 17.5523 11 17 11H7C6.44771 11 6 10.5523 6 10Z"
    fill="currentColor"
  />
  <path
    d="M7 13C6.44772 13 6 13.4477 6 14C6 14.5523 6.44771 15 7 15H17C17.5523 15 18 14.5523 18 14C18 13.4477 17.5523 13 17 13H7Z"
    fill="currentColor"
  />
  <path
    d="M6 18C6 17.4477 6.44772 17 7 17H11C11.5523 17 12 17.4477 12 18C12 18.5523 11.5523 19 11 19H7C6.44772 19 6 18.5523 6 18Z"
    fill="currentColor"
  />
  <path
    fill-rule="evenodd"
    clip-rule="evenodd"
    d="M2 4C2 2.34315 3.34315 1 5 1H19C20.6569 1 22 2.34315 22 4V20C22 21.6569 20.6569 23 19 23H5C3.34315 23 2 21.6569 2 20V4ZM5 3H19C19.5523 3 20 3.44771 20 4V20C20 20.5523 19.5523 21 19 21H5C4.44772 21 4 20.5523 4 20V4C4 3.44772 4.44771 3 5 3Z"
    fill="currentColor"
  />
</symbol>

<symbol id="stock-music--sound-effects" viewBox="0 0 24 24">
  <path
    fill-rule="evenodd"
    clip-rule="evenodd"
    d="M12 8.95439L17.6352 7.82736C19.0102 7.55235 20 6.34501 20 4.94274C20 3.08637 18.3017 1.69406 16.4813 2.05813L12.4117 2.87206C11.0094 3.15252 10 4.38376 10 5.8138V13.8895C9.41165 13.5492 8.72857 13.3544 8 13.3544C5.79086 13.3544 4 15.1453 4 17.3544C4 19.5635 5.79086 21.3544 8 21.3544C10.2091 21.3544 12 19.5635 12 17.3544V8.95439ZM16.8736 4.01929L12.8039 4.83322C12.3365 4.92671 12 5.33712 12 5.8138V6.91479L17.2429 5.8662C17.6831 5.77816 18 5.39165 18 4.94274C18 4.34846 17.4563 3.90274 16.8736 4.01929ZM10 17.3544C10 16.2498 9.10457 15.3544 8 15.3544C6.89543 15.3544 6 16.2498 6 17.3544C6 18.459 6.89543 19.3544 8 19.3544C9.10457 19.3544 10 18.459 10 17.3544Z"
    fill="currentColor"
  />
</symbol>


<symbol id="stock-photos" viewBox="0 0 450 450">
	<path d="M407.812 0H42.1875C18.8877 0 0 21.5859 0 48.2143V401.786C0 428.404 18.8877 450 42.1875 450H407.812C431.112 450 450 428.414 450 401.786V48.2143C450 21.5859 431.104 0 407.812 0ZM42.1875 433.929C26.6836 433.929 14.0625 419.504 14.0625 401.786V350.247L107.49 243.472C110.237 240.333 114.687 240.333 117.431 243.472L186.891 322.855L89.7363 433.929H42.1875ZM435.938 401.786C435.938 419.504 423.316 433.929 407.812 433.929H109.6L332.578 179.096C335.325 175.957 339.775 175.957 342.519 179.096L435.938 285.971V401.786ZM435.938 263.27L352.415 167.816C344.175 158.43 330.829 158.43 322.585 167.816L196.875 311.484L126.65 232.031C118.411 222.646 105.064 222.646 96.8203 232.031L14.0625 327.556V48.2143C14.0625 30.4955 26.6836 16.0714 42.1875 16.0714H407.812C423.316 16.0714 435.938 30.4955 435.938 48.2143V263.27ZM112.5 72.3214C85.3154 72.3214 63.2812 97.5335 63.2812 128.571C63.2812 159.609 85.3154 184.821 112.5 184.821C139.685 184.821 161.719 159.609 161.719 128.571C161.719 97.5335 139.658 72.3214 112.5 72.3214ZM112.5 168.75C93.0762 168.75 77.3438 150.77 77.3438 128.571C77.3438 106.413 93.1201 88.3929 112.5 88.3929C131.88 88.3929 147.656 106.373 147.656 128.571C147.656 150.77 131.924 168.75 112.5 168.75Z" fill="currentColor"/>
</symbol>


<symbol id="javascript-chart-libraries" viewBox="0 0 450 450">
<path d="M401.786 0H48.2143C21.596 0 0 21.596 0 48.2143V401.786C0 428.404 21.596 450 48.2143 450H401.786C428.404 450 450 428.404 450 401.786V48.2143C450 21.596 428.404 0 401.786 0Z" fill="#C7B300"/>
<path d="M181.708 414.743C219.174 414.743 244.888 394.754 244.888 350.96V206.618H202.6V350.357C202.6 371.551 193.761 376.975 179.9 376.975C165.335 376.975 159.308 367.031 152.679 355.279L118.225 376.071C128.27 397.266 147.857 414.743 181.708 414.743Z" fill="black"/>
<path d="M267.891 371.551C280.245 396.06 305.658 414.743 344.933 414.743C385.011 414.743 414.944 393.85 414.944 355.882C414.944 320.525 394.754 304.754 358.795 289.386L348.248 284.866C330.067 276.931 322.232 271.808 322.232 259.152C322.232 248.906 330.067 241.071 342.422 241.071C354.576 241.071 362.411 246.194 369.643 259.152L402.589 238.058C388.728 213.549 369.442 204.208 342.522 204.208C304.855 204.208 280.647 228.315 280.647 260.056C280.647 294.509 300.837 310.882 331.373 323.839L341.92 328.359C361.306 336.897 372.757 342.02 372.757 356.484C372.757 368.638 361.507 377.377 344.029 377.377C323.237 377.377 311.384 366.429 302.344 351.663L267.891 371.551Z" fill="black"/>
</symbol>

<symbol id="javascript-animation-libraries" viewBox="0 0 450 450">
<path d="M401.786 0H48.2143C21.596 0 0 21.596 0 48.2143V401.786C0 428.404 21.596 450 48.2143 450H401.786C428.404 450 450 428.404 450 401.786V48.2143C450 21.596 428.404 0 401.786 0Z" fill="#C7B300"/>
<path d="M181.708 414.743C219.174 414.743 244.888 394.754 244.888 350.96V206.618H202.6V350.357C202.6 371.551 193.761 376.975 179.9 376.975C165.335 376.975 159.308 367.031 152.679 355.279L118.225 376.071C128.27 397.266 147.857 414.743 181.708 414.743Z" fill="black"/>
<path d="M267.891 371.551C280.245 396.06 305.658 414.743 344.933 414.743C385.011 414.743 414.944 393.85 414.944 355.882C414.944 320.525 394.754 304.754 358.795 289.386L348.248 284.866C330.067 276.931 322.232 271.808 322.232 259.152C322.232 248.906 330.067 241.071 342.422 241.071C354.576 241.071 362.411 246.194 369.643 259.152L402.589 238.058C388.728 213.549 369.442 204.208 342.522 204.208C304.855 204.208 280.647 228.315 280.647 260.056C280.647 294.509 300.837 310.882 331.373 323.839L341.92 328.359C361.306 336.897 372.757 342.02 372.757 356.484C372.757 368.638 361.507 377.377 344.029 377.377C323.237 377.377 311.384 366.429 302.344 351.663L267.891 371.551Z" fill="black"/>
</symbol>

<symbol id="css-frameworks" viewBox="0 0 450 450">
<path d="M33 0L67.9 397.567L225 450L382.1 397.567L417 0H33Z" fill="#1572B6"/>
<path d="M225 36.1606V64.4022V413.839L351.08 369.833L379 36.1606H225Z" fill="#33A9DC"/>
<path d="M341.3 127.868L346.1 80.3572H103.9L109.7 127.868H232.6L226.1 130.58L114 177.489L117.6 223.996L117.8 223.895V223.996L284.1 224.498L280.4 286.373L225.7 301.842L173.1 288.482L169.9 250.011H121L127.4 324.241L226.2 353.571L324.4 324.743L337.2 177.489H225.7L226 177.388L341.3 127.868Z" fill="#EBFFFB"/>
</symbol>

<symbol id="css-methodologies" viewBox="0 0 450 450">
<path d="M33 0L67.9 397.567L225 450L382.1 397.567L417 0H33Z" fill="#1572B6"/>
<path d="M225 36.1606V64.4022V413.839L351.08 369.833L379 36.1606H225Z" fill="#33A9DC"/>
<path d="M341.3 127.868L346.1 80.3572H103.9L109.7 127.868H232.6L226.1 130.58L114 177.489L117.6 223.996L117.8 223.895V223.996L284.1 224.498L280.4 286.373L225.7 301.842L173.1 288.482L169.9 250.011H121L127.4 324.241L226.2 353.571L324.4 324.743L337.2 177.489H225.7L226 177.388L341.3 127.868Z" fill="#EBFFFB"/>
</symbol>


<symbol id="css-animations" viewBox="0 0 450 450">
<path d="M33 0L67.9 397.567L225 450L382.1 397.567L417 0H33Z" fill="#1572B6"/>
<path d="M225 36.1606V64.4022V413.839L351.08 369.833L379 36.1606H225Z" fill="#33A9DC"/>
<path d="M341.3 127.868L346.1 80.3572H103.9L109.7 127.868H232.6L226.1 130.58L114 177.489L117.6 223.996L117.8 223.895V223.996L284.1 224.498L280.4 286.373L225.7 301.842L173.1 288.482L169.9 250.011H121L127.4 324.241L226.2 353.571L324.4 324.743L337.2 177.489H225.7L226 177.388L341.3 127.868Z" fill="#EBFFFB"/>
</symbol>


<symbol id="react-ui-libraries" viewBox="-10.5 -9.45 21 18.9">
      <circle cx="0" cy="0" r="2" fill="#3B82F6" />
      <g stroke="#3B82F6" strokeWidth="1" fill="none">
        <ellipse rx="10" ry="4.5" />
        <ellipse rx="10" ry="4.5" transform="rotate(60)" />
        <ellipse rx="10" ry="4.5" transform="rotate(120)" />
      </g>
</symbol>


<symbol id="font-awesome" viewBox="0 0 448 512">
<path d="M32 40c0-4.4-3.6-8-8-8s-8 3.6-8 8V472c0 4.4 3.6 8 8 8s8-3.6 8-8V96c27.4 0 54.5-4.4 80.5-13.1l35.3-11.8C162 66.4 177 64 192 64s30 2.4 44.2 7.2l46.7 15.6C301.3 92.9 320.6 96 340 96s38.7-3.1 57.1-9.3L432 75.1V216v16V370.2l-40 13.3c-16.8 5.6-34.3 8.4-52 8.4s-35.3-2.9-52-8.4L241.3 368c-15.9-5.3-32.5-8-49.3-8s-33.4 2.7-49.3 8l-25.2 8.4c-4.2 1.4-6.5 5.9-5.1 10.1s5.9 6.5 10.1 5.1l25.2-8.4C162 378.4 177 376 192 376s30 2.4 44.2 7.2l46.7 15.6c18.4 6.1 37.7 9.3 57.1 9.3s38.7-3.1 57.1-9.3l45.4-15.1 5.5-1.8V376 232 216 64 52.9l-10.5 3.5L392 71.6c-16.8 5.6-34.3 8.4-52 8.4s-35.3-2.9-52-8.4L241.3 56c-15.9-5.3-32.5-8-49.3-8s-33.4 2.7-49.3 8L107.4 67.8C83.1 75.9 57.6 80 32 80V40z" fill="currentColor" />
</symbol>

<symbol id="icon-fonts" viewBox="0 0 448 512">

<path d="M32 40c0-4.4-3.6-8-8-8s-8 3.6-8 8V472c0 4.4 3.6 8 8 8s8-3.6 8-8V96c27.4 0 54.5-4.4 80.5-13.1l35.3-11.8C162 66.4 177 64 192 64s30 2.4 44.2 7.2l46.7 15.6C301.3 92.9 320.6 96 340 96s38.7-3.1 57.1-9.3L432 75.1V216v16V370.2l-40 13.3c-16.8 5.6-34.3 8.4-52 8.4s-35.3-2.9-52-8.4L241.3 368c-15.9-5.3-32.5-8-49.3-8s-33.4 2.7-49.3 8l-25.2 8.4c-4.2 1.4-6.5 5.9-5.1 10.1s5.9 6.5 10.1 5.1l25.2-8.4C162 378.4 177 376 192 376s30 2.4 44.2 7.2l46.7 15.6c18.4 6.1 37.7 9.3 57.1 9.3s38.7-3.1 57.1-9.3l45.4-15.1 5.5-1.8V376 232 216 64 52.9l-10.5 3.5L392 71.6c-16.8 5.6-34.3 8.4-52 8.4s-35.3-2.9-52-8.4L241.3 56c-15.9-5.3-32.5-8-49.3-8s-33.4 2.7-49.3 8L107.4 67.8C83.1 75.9 57.6 80 32 80V40z" fill="currentColor" />
</symbol>



<symbol id="vectors--clip-art" viewBox="0 0 448 512">
<path d="M416 48c8.8 0 16 7.2 16 16V96c0 8.8-7.2 16-16 16H384c-8.8 0-16-7.2-16-16V64c0-8.8 7.2-16 16-16h32zM384 32c-17.7 0-32 14.3-32 32v8H96V64c0-17.7-14.3-32-32-32H32C14.3 32 0 46.3 0 64V96c0 17.7 14.3 32 32 32h8l0 256H32c-17.7 0-32 14.3-32 32v32c0 17.7 14.3 32 32 32H64c17.7 0 32-14.3 32-32v-8H352v8c0 17.7 14.3 32 32 32h32c17.7 0 32-14.3 32-32V416c0-17.7-14.3-32-32-32H384c-3.2 0-6.2 .5-9.1 1.3l-52.3-87.2c8.1-5.8 13.4-15.3 13.4-26.1V240c0-10.8-5.3-20.3-13.4-26.1l52.3-87.2c2.9 .9 5.9 1.3 9.1 1.3h32c17.7 0 32-14.3 32-32V64c0-17.7-14.3-32-32-32H384zM307.4 303.8l53.8 89.7c-5.7 5.8-9.2 13.7-9.2 22.5v8H96v-8c0-17.7-14.3-32-32-32H56l0-256h8c17.7 0 32-14.3 32-32V88H352v8c0 8.7 3.5 16.7 9.2 22.5l-53.8 89.7c-1.1-.1-2.2-.2-3.4-.2H272c-17.7 0-32 14.3-32 32v32c0 17.7 14.3 32 32 32h32c1.1 0 2.3-.1 3.4-.2zM32 400H64c8.8 0 16 7.2 16 16v32c0 8.8-7.2 16-16 16H32c-8.8 0-16-7.2-16-16V416c0-8.8 7.2-16 16-16zm352 0h32c8.8 0 16 7.2 16 16v32c0 8.8-7.2 16-16 16H384c-8.8 0-16-7.2-16-16V416c0-8.8 7.2-16 16-16zM32 48H64c8.8 0 16 7.2 16 16V96c0 8.8-7.2 16-16 16H32c-8.8 0-16-7.2-16-16V64c0-8.8 7.2-16 16-16zM304 224c8.8 0 16 7.2 16 16v32c0 8.8-7.2 16-16 16H272c-8.8 0-16-7.2-16-16V240c0-8.8 7.2-16 16-16h32z" fill="currentColor" />
</symbol>


<symbol id="logos" viewBox="0 0 384 512">
<path d="M318.7 268.7c-.2-36.7 16.4-64.4 50-84.8-18.8-26.9-47.2-41.7-84.7-44.6-35.5-2.8-74.3 20.7-88.5 20.7-15 0-49.4-19.7-76.4-19.7C63.3 141.2 4 184.8 4 273.5q0 39.3 14.4 81.2c12.8 36.7 59 126.7 107.2 125.2 25.2-.6 43-17.9 75.8-17.9 31.8 0 48.3 17.9 76.4 17.9 48.6-.7 90.4-82.5 102.6-119.3-65.2-30.7-61.7-90-61.7-91.9zm-56.6-164.2c27.3-32.4 24.8-61.9 24-72.5-24.1 1.4-52 16.4-67.9 34.9-17.5 19.8-27.8 44.3-25.6 71.9 26.1 2 49.9-11.4 69.5-34.3z" fill="currentColor"/>
</symbol>

<symbol id="design-systems--style-guides" viewBox="0 0 450 430" fill="none">
<circle cx="135" cy="135" r="125" stroke="currentColor" stroke-width="20"/>
<circle cx="315" cy="135" r="125" stroke="currentColor" stroke-width="20"/>
<circle cx="225" cy="295" r="125" stroke="currentColor" stroke-width="20"/>
</symbol>

<symbol id="design-inspiration" viewBox="0 0 310 450">
<path d="M155 0C196.304 0 235.142 16.0664 264.469 45.2901C293.796 74.6367 310 113.73 310 155.303C310 192.832 296.349 229.131 270.897 257.404C258.991 270.983 236.949 303.186 228.449 331.794C228.037 335.351 225.103 337.741 221.649 337.741C221.348 337.741 221.046 337.727 220.745 337.7C216.905 337.246 214.219 333.484 214.685 329.624C214.685 329.614 214.715 329.354 214.73 329.21C214.736 329.16 214.74 329.123 214.74 329.116C224.145 297.036 247.677 262.592 260.368 248.116C282.852 222.399 295.243 189.414 295.243 155.216C295.243 117.405 280.526 81.8973 253.789 55.1962C227.941 28.6269 192.626 14.0106 155.065 14.0106H154.598C75.7597 14.2743 14.0415 76.3164 14.0415 155.251C14.0415 189.467 26.4329 222.461 48.9165 248.151C61.6159 262.627 85.1389 297.071 94.2717 327.815L94.6002 329.656C95.0659 333.515 92.2962 337.003 88.4574 337.456C84.5648 337.895 81.1092 335.149 80.6706 331.304C72.3303 303.214 50.287 271.011 38.3888 257.432C13.6243 229.184 0 192.902 0 155.303C0 69.917 69.3451 0.272083 154.56 0.011158L155 0Z" fill="currentColor"/>
<path d="M84.6599 378.923C84.6513 371.145 90.964 364.834 98.7245 364.834H211.276C219.026 364.834 225.278 371.953 225.283 379.696L225.383 399.331C225.376 403.98 223.182 411.006 220.611 414.879L205.622 437.458C201.033 444.359 190.465 450 182.187 450H127.875C119.596 450 109.028 444.375 104.405 436.676L89.3634 414.097C86.2879 409.474 84.656 404.116 84.6474 398.558L84.6599 378.923ZM208.762 407.096C209.807 405.52 211.096 401.263 211.1 399.375L210.365 379.64H98.0778L98.1105 399.257C98.1161 402.063 98.9357 404.775 100.486 407.109L116.259 429.674C118.249 432.664 124.374 435.95 127.963 435.95H182.06C185.652 435.95 191.775 432.66 193.764 429.666L208.762 407.096Z" fill="currentColor"/>
<path d="M202.496 87.8833C192.168 112.467 176.7 129.69 167.948 126.352C159.195 123.015 160.473 100.38 170.802 75.7969C181.13 51.2132 196.598 33.9902 205.35 37.3278C214.102 40.6653 212.824 63.2999 202.496 87.8833Z" fill="currentColor"/>
<path d="M236.561 174.896C208.769 174.555 186.338 166.998 186.46 158.017C186.581 149.037 209.209 142.033 237.001 142.374C264.793 142.716 287.224 150.273 287.102 159.253C286.981 168.234 264.353 175.238 236.561 174.896Z" fill="currentColor"/>
<path d="M205.386 273.673C213.93 269.878 211.337 247.346 199.595 223.345C187.853 199.345 171.407 182.964 162.863 186.759C154.318 190.553 156.911 213.086 168.653 237.086C180.395 261.087 196.841 277.467 205.386 273.673Z" fill="currentColor"/>
<path d="M106.021 218.138C86.1142 236.618 64.6433 246.383 58.0644 239.951C51.4855 233.518 62.2898 213.323 82.1963 194.843C102.103 176.364 123.574 166.598 130.153 173.031C136.731 179.463 125.928 199.659 106.021 218.138Z" fill="currentColor"/>
<path d="M126.366 138.413C132.614 131.687 120.804 112.009 99.9897 94.4607C79.1749 76.9129 57.237 68.1401 50.9897 74.8662C44.7423 81.5924 56.5516 101.271 77.3663 118.818C98.181 136.366 120.119 145.139 126.366 138.413Z" fill="currentColor"/>
<path d="M166.816 156.897C166.816 164.64 160.228 170.916 152.101 170.916C143.974 170.916 137.386 164.64 137.386 156.897C137.386 149.154 143.974 142.878 152.101 142.878C160.228 142.878 166.816 149.154 166.816 156.897Z" fill="currentColor"/>
</symbol>

<symbol id="favicons" viewBox="0 0 428 408" fill="none" >
<path d="M214 22.5955L271.159 138.411L273.485 143.126L278.688 143.882L406.498 162.454L314.014 252.604L310.249 256.273L311.138 261.455L332.97 388.749L218.653 328.649L214 326.202L209.347 328.649L95.0296 388.749L116.862 261.455L117.751 256.273L113.986 252.604L21.5019 162.454L149.312 143.882L154.515 143.126L156.842 138.411L214 22.5955Z" stroke="currentColor" stroke-width="12"/>
</symbol>

<symbol id="product--image-mockups" viewBox="0 0 450 450">
<rect width="200" height="200" fill="currentColor"/>
<circle cx="325" cy="325" r="125" fill="currentColor"/>
<path d="M333.5 0L358.758 74.6262H440.494L374.368 120.748L399.626 195.374L333.5 149.252L267.374 195.374L292.632 120.748L226.506 74.6262H308.242L333.5 0Z" fill="currentColor"/>
</symbol>


<symbol id="firefox-extensions" viewBox="0 0 77 80" fill="none">

<path d="M73.9732 27.0666C72.3195 23.0876 68.9651 18.7914 66.3382 17.4333C68.2114 21.0607 69.5116 24.9562 70.1925 28.9815V29.0178L70.1994 29.0581C73.1334 37.4531 72.7091 46.6573 69.0151 54.7468C64.6532 64.1061 54.0988 73.6991 37.572 73.2277C19.7195 72.722 3.98814 59.4701 1.052 42.1185C0.516821 39.3817 1.052 37.9941 1.32107 35.7699C0.95405 37.4976 0.749234 39.2558 0.70929 41.0216V41.218C0.726109 50.7418 4.31277 59.9133 10.7612 66.9219C17.2097 73.9305 26.0514 78.2669 35.5408 79.0752C45.0303 79.8834 54.478 77.1047 62.0188 71.2876C69.5597 65.4705 74.6458 57.0377 76.273 47.6539C76.3368 47.1629 76.3889 46.6768 76.4458 46.1809C77.2297 39.7017 76.3811 33.1293 73.9771 27.0617L73.9732 27.0666Z" fill="#E81655"/>
<path d="M55.4726 31.5346C55.5551 31.5926 55.6317 31.6505 55.7093 31.7084C54.7533 30.0132 53.5632 28.4612 52.1741 27.098C40.3412 15.2651 49.074 1.4486 50.546 0.741574L50.5607 0.719971C41.0011 6.31728 37.7557 16.6772 37.4611 21.8621C37.9049 21.8317 38.3448 21.7943 38.7985 21.7943C42.1901 21.8009 45.5196 22.7054 48.4483 24.4159C51.377 26.1264 53.8006 28.5818 55.4726 31.5327V31.5346Z" fill="#FF994F"/>
<path d="M38.8181 33.9013C38.7553 34.848 35.4106 38.1131 34.2411 38.1131C23.4196 38.1131 21.6619 44.6599 21.6619 44.6599C22.1411 50.1728 25.9826 54.7155 30.6264 57.1115C30.8385 57.2215 31.0536 57.3207 31.2686 57.4179C31.6411 57.5829 32.0136 57.7354 32.3861 57.8755C33.9799 58.4395 35.6491 58.7615 37.3383 58.831C56.3102 59.7206 59.9828 36.1471 46.293 29.3027C49.5223 28.8825 52.7926 29.6765 55.4696 31.5308C53.7976 28.58 51.374 26.1245 48.4453 24.414C45.5166 22.7035 42.1871 21.799 38.7955 21.7925C38.3438 21.7925 37.9019 21.8298 37.4581 21.8602C33.6391 22.1221 29.9877 23.5289 26.9803 25.8972C27.5606 26.3882 28.2156 27.0441 29.5953 28.4042C32.1779 30.9485 38.8014 33.5841 38.8161 33.8935L38.8181 33.9013Z" fill="#6D44BF"/>
<path d="M25.2078 24.641C25.5162 24.8374 25.7705 25.0083 25.9934 25.1624C25.1263 22.1271 25.0894 18.9146 25.8864 15.8601C22.3757 17.5607 19.2562 19.9716 16.7255 22.9402C16.9111 22.9353 22.4318 22.8361 25.2078 24.641Z" fill="#FF8E26"/>
<path d="M1.04514 42.1204C3.98226 59.472 19.7127 72.7288 37.5651 73.2296C54.0919 73.6971 64.6483 64.1031 69.0083 54.7487C72.7022 46.6592 73.1265 37.455 70.1925 29.06V29.0237C70.1925 28.9952 70.1867 28.9785 70.1925 28.9873L70.1994 29.0511C71.5497 37.8664 67.0659 46.4028 60.0555 52.1867L60.0339 52.2358C46.3745 63.3617 33.3043 58.9467 30.6628 57.1457C30.4782 57.0573 30.2935 56.9654 30.1089 56.8698C22.146 53.0636 18.8554 45.8126 19.5624 39.5869C17.6722 39.6148 15.8145 39.0939 14.2143 38.0873C12.6141 37.0808 11.3402 35.6318 10.5468 33.9159C12.6373 32.6353 15.0208 31.9114 17.4703 31.8131C19.9198 31.7148 22.3537 32.2453 24.5401 33.3542C29.0467 35.3998 34.1747 35.6014 38.828 33.9159C38.8132 33.6066 32.1898 30.9699 29.6071 28.4266C28.2274 27.0666 27.5725 26.4116 26.9921 25.9196C26.6785 25.6539 26.3507 25.4055 26.0101 25.1753C25.7843 25.0211 25.5299 24.8541 25.2245 24.6538C22.4485 22.8489 16.9278 22.9481 16.7451 22.953H16.7274C15.2191 21.0411 15.3252 14.7368 15.4116 13.4199C14.9654 13.5993 14.5394 13.8254 14.1409 14.0945C12.8093 15.0449 11.5646 16.1112 10.4211 17.2811C9.11345 18.5984 7.91845 20.023 6.84867 21.54C4.40209 25.0079 2.66659 28.9252 1.74235 33.0675C1.72369 33.145 0.371501 39.0566 1.03827 42.1223L1.04514 42.1204Z" fill="#FF6F4F"/>
<path d="M52.1731 27.0961C53.5625 28.4607 54.7526 30.0145 55.7082 31.7114C55.9174 31.8695 56.1128 32.0266 56.2788 32.1788C64.9075 40.1329 60.3864 51.3766 60.0496 52.172C67.059 46.397 71.5388 37.8547 70.1935 29.0365C65.8885 18.3034 58.5864 13.9728 52.6356 4.55561C52.3341 4.07935 52.0327 3.60211 51.7391 3.09835C51.5711 2.81063 51.4366 2.55138 51.3198 2.31276C51.0726 1.8341 50.8821 1.32823 50.7522 0.805417C50.7523 0.781292 50.7436 0.757947 50.7277 0.739835C50.7118 0.721723 50.6897 0.710113 50.6658 0.707219C50.6423 0.700784 50.6175 0.700784 50.5941 0.707219C50.5892 0.707219 50.5813 0.716056 50.5754 0.71802C50.5695 0.719984 50.5568 0.728822 50.5479 0.73275C49.0759 1.43094 40.3451 15.2563 52.178 27.0794L52.1731 27.0961Z" fill="#FFB45B"/>
<path d="M56.2778 32.1828C56.1118 32.0306 55.9164 31.8735 55.7073 31.7154C55.6297 31.6575 55.5531 31.5995 55.4706 31.5416C52.7935 29.6873 49.5233 28.8933 46.294 29.3135C59.9828 36.1579 56.3102 59.7255 37.3392 58.8417C35.6501 58.7723 33.9808 58.4502 32.3871 57.8863C32.0146 57.7468 31.6421 57.5943 31.2696 57.4287C31.0545 57.3305 30.8395 57.2323 30.6274 57.1223L30.6539 57.139C33.2994 58.9449 46.3656 63.3569 60.025 52.2291L60.0466 52.18C60.3874 51.3846 64.9085 40.1408 56.2758 32.1868L56.2778 32.1828Z" fill="#FFAF82"/>
<path d="M21.6629 44.654C21.6629 44.654 23.4196 38.1071 34.2421 38.1071C35.4116 38.1071 38.7592 34.842 38.8191 33.8954C34.1658 35.5809 29.0378 35.3793 24.5312 33.3337C22.3449 32.2248 19.911 31.6942 17.4615 31.7926C15.0119 31.8909 12.6284 32.6148 10.538 33.8954C11.3313 35.6113 12.6052 37.0603 14.2054 38.0668C15.8056 39.0734 17.6633 39.5942 19.5536 39.5663C18.8485 45.7892 22.1381 53.0392 30.1001 56.8493C30.2778 56.9347 30.4448 57.027 30.6274 57.1085C25.9797 54.7076 22.1421 50.1669 21.6629 44.6569V44.654Z" fill="#CEA821"/>


<symbol id="" viewBox="0 0 450 450">

</symbol>


</svg>
